<svg width="38" height="34" viewBox="0 0 38 34" fill="none" xmlns="http://www.w3.org/2000/svg">
<path d="M7.04933 17.8081C5.35443 15.7036 4.37382 13.2127 4.32321 10.8834C4.27261 8.55415 5.15615 6.57728 6.77948 5.3877C8.40281 4.19812 10.633 3.89328 12.9793 4.54023C15.3256 5.18719 17.596 6.73294 19.2909 8.83746" stroke="#004D93" stroke-width="2.4866" stroke-linecap="round"/>
<path d="M31.5669 17.8081C33.2618 15.7036 34.2424 13.2127 34.293 10.8834C34.3436 8.55415 33.4601 6.57728 31.8367 5.3877C30.2134 4.19812 27.9833 3.89328 25.6369 4.54023C23.2906 5.18719 21.0202 6.73294 19.3253 8.83746" stroke="#004D93" stroke-width="2.4866" stroke-linecap="round"/>
<path d="M31.5947 17.769L16.8633 32.7615" stroke="#004D93" stroke-width="2.4866" stroke-linecap="round"/>
<path d="M7.04253 17.769L21.7739 32.7615" stroke="#004D93" stroke-width="2.4866" stroke-linecap="round" stroke-linejoin="round"/>
<path d="M19.3184 8.86712L22.2646 12.1467" stroke="#004D93" stroke-width="2.4866" stroke-linecap="round"/>
<path d="M19.3184 8.86712L16.3721 12.1467" stroke="#004D93" stroke-width="2.4866" stroke-linecap="round"/>
</svg>
