<svg width="34" height="38" viewBox="0 0 34 38" fill="none" xmlns="http://www.w3.org/2000/svg">
<path d="M16.0229 31.9883C13.8085 31.9883 11.7276 31.5737 9.78005 30.7445C7.8325 29.9153 6.1384 28.79 4.69775 27.3686C3.25709 25.9471 2.11658 24.2756 1.2762 22.354C0.435815 20.4325 0.015625 18.3793 0.015625 16.1945C0.015625 14.0096 0.435815 11.9564 1.2762 10.0349C2.11658 8.11329 3.25709 6.44177 4.69775 5.02033C6.1384 3.59888 7.8325 2.47357 9.78005 1.6444C11.7276 0.815223 13.8085 0.400635 16.0229 0.400635C18.2372 0.400635 20.3182 0.815223 22.2657 1.6444C24.2133 2.47357 25.9074 3.59888 27.348 5.02033C28.7887 6.44177 29.9292 8.11329 30.7696 10.0349C31.6099 11.9564 32.0301 14.0096 32.0301 16.1945C32.0301 18.3793 31.6099 20.4325 30.7696 22.354C29.9292 24.2756 28.7887 25.9471 27.348 27.3686C25.9074 28.79 24.2133 29.9153 22.2657 30.7445C20.3182 31.5737 18.2372 31.9883 16.0229 31.9883ZM16.0229 28.8295C19.5978 28.8295 22.6259 27.6055 25.107 25.1575C27.5881 22.7094 28.8287 19.7217 28.8287 16.1945C28.8287 12.6672 27.5881 9.67951 25.107 7.23146C22.6259 4.78342 19.5978 3.5594 16.0229 3.5594C12.4479 3.5594 9.41989 4.78342 6.93876 7.23146C4.45764 9.67951 3.21708 12.6672 3.21708 16.1945C3.21708 19.7217 4.45764 22.7094 6.93876 25.1575C9.41989 27.6055 12.4479 28.8295 16.0229 28.8295ZM16.0229 25.6708C13.355 25.6708 11.0873 24.7494 9.2198 22.9068C7.35228 21.0642 6.41853 18.8268 6.41853 16.1945C6.41853 13.5622 7.35228 11.3247 9.2198 9.48208C11.0873 7.63947 13.355 6.71816 16.0229 6.71816C18.6908 6.71816 20.9584 7.63947 22.826 9.48208C24.6935 11.3247 25.6272 13.5622 25.6272 16.1945C25.6272 18.8268 24.6935 21.0642 22.826 22.9068C20.9584 24.7494 18.6908 25.6708 16.0229 25.6708ZM16.0229 22.512C17.7837 22.512 19.291 21.8934 20.5449 20.6562C21.7988 19.419 22.4258 17.9318 22.4258 16.1945C22.4258 14.4571 21.7988 12.9699 20.5449 11.7327C19.291 10.4955 17.7837 9.87693 16.0229 9.87693C14.2621 9.87693 12.7547 10.4955 11.5008 11.7327C10.2469 12.9699 9.61998 14.4571 9.61998 16.1945C9.61998 17.9318 10.2469 19.419 11.5008 20.6562C12.7547 21.8934 14.2621 22.512 16.0229 22.512ZM16.0229 19.3532C15.1425 19.3532 14.3888 19.0439 13.7619 18.4253C13.1349 17.8067 12.8214 17.0631 12.8214 16.1945C12.8214 15.3258 13.1349 14.5822 13.7619 13.9636C14.3888 13.345 15.1425 13.0357 16.0229 13.0357C16.9033 13.0357 17.657 13.345 18.2839 13.9636C18.9109 14.5822 19.2243 15.3258 19.2243 16.1945C19.2243 17.0631 18.9109 17.8067 18.2839 18.4253C17.657 19.0439 16.9033 19.3532 16.0229 19.3532Z" fill="black"/>
<g opacity="0.9">
<path d="M16.0443 25.3385L16.103 33.5552" stroke="black" stroke-width="1.65773" stroke-linecap="round"/>
<path d="M16.1029 18.7593L17.7452 25.5407H14.4606L16.1029 18.7593Z" fill="black"/>
<path d="M16.0554 32.7331L18.9473 35.7815" stroke="black" stroke-width="2.4866" stroke-linecap="round"/>
<path d="M15.9817 32.733L13.2583 36.021" stroke="black" stroke-width="2.4866" stroke-linecap="round"/>
</g>
</svg>
