<svg width="50" height="50" viewBox="0 0 50 50" fill="none" xmlns="http://www.w3.org/2000/svg">
<circle cx="24.9732" cy="25.0316" r="24.8092" fill="#004D93"/>
<path d="M31.3408 16.8445L18.6055 16.8445C17.6021 16.8445 16.7861 17.6605 16.7861 18.6638L16.7861 31.3992C16.7861 32.4026 17.6021 33.2185 18.6055 33.2185H25.8828C26.002 33.2185 26.1193 33.1949 26.2294 33.1494C26.3395 33.1039 26.4405 33.0375 26.526 32.952L32.8936 26.5843C32.9719 26.5061 33.0274 26.4142 33.0719 26.3178C33.0847 26.2905 33.092 26.2623 33.102 26.2332C33.1274 26.1568 33.1438 26.0785 33.1484 25.9976C33.1502 25.9785 33.1602 25.9603 33.1602 25.9412V18.6638C33.1602 17.6605 32.3442 16.8445 31.3408 16.8445ZM18.6055 18.6638L31.3408 18.6638V25.0315L25.8828 25.0315C25.3798 25.0315 24.9732 25.439 24.9732 25.9412L24.9732 31.3992H18.6055L18.6055 18.6638ZM26.7925 30.1129L26.7925 26.8508L30.0546 26.8508L26.7925 30.1129Z" fill="#EAECEF"/>
</svg>
