<svg width="9" height="10" viewBox="0 0 9 10" fill="none" xmlns="http://www.w3.org/2000/svg">
<path d="M0.854335 9.47188H7.21715C7.47021 9.47188 7.66791 9.41494 7.81026 9.30107C7.95577 9.19036 8.02852 9.03694 8.02852 8.84082C8.02852 8.53715 7.93521 8.21608 7.74858 7.87762C7.56511 7.53915 7.2994 7.22283 6.95144 6.92865C6.60665 6.63131 6.18753 6.3909 5.69406 6.20744C5.20376 6.02081 4.6502 5.92749 4.03337 5.92749C3.41971 5.92749 2.86614 6.02081 2.37268 6.20744C1.88238 6.3909 1.46326 6.63131 1.1153 6.92865C0.767346 7.22283 0.501636 7.53915 0.318169 7.87762C0.134702 8.21608 0.0429688 8.53715 0.0429688 8.84082C0.0429688 9.03694 0.114141 9.19036 0.256486 9.30107C0.401994 9.41494 0.601277 9.47188 0.854335 9.47188ZM4.03812 5.07817C4.37658 5.07817 4.68974 4.98643 4.97759 4.80297C5.26545 4.61634 5.49636 4.36486 5.67034 4.04854C5.84748 3.73222 5.93605 3.37635 5.93605 2.98095C5.93605 2.59188 5.84748 2.24392 5.67034 1.93709C5.49636 1.62709 5.26545 1.38352 4.97759 1.20638C4.68974 1.02924 4.37658 0.940674 4.03812 0.940674C3.69965 0.940674 3.38649 1.03083 3.09864 1.21113C2.81079 1.39143 2.57829 1.63658 2.40115 1.94658C2.22717 2.25657 2.14018 2.60453 2.14018 2.99044C2.14018 3.38268 2.22717 3.73696 2.40115 4.05328C2.57829 4.36644 2.81079 4.61634 3.09864 4.80297C3.38649 4.98643 3.69965 5.07817 4.03812 5.07817Z" fill="#444444"/>
</svg>
