<svg width="9" height="10" viewBox="0 0 9 10" fill="none" xmlns="http://www.w3.org/2000/svg">
<path d="M1.02931 4.81479H3.19295C3.49346 4.81479 3.71963 4.73887 3.87146 4.58704C4.0233 4.43204 4.09922 4.19796 4.09922 3.88481V1.76387C4.09922 1.45071 4.0233 1.21821 3.87146 1.06637C3.71963 0.91454 3.49346 0.838623 3.19295 0.838623H1.02931C0.728804 0.838623 0.502633 0.91454 0.350799 1.06637C0.198964 1.21821 0.123047 1.45071 0.123047 1.76387V3.88481C0.123047 4.19796 0.198964 4.43204 0.350799 4.58704C0.502633 4.73887 0.728804 4.81479 1.02931 4.81479ZM5.79312 4.81479H7.95202C8.25253 4.81479 8.4787 4.73887 8.63053 4.58704C8.78236 4.43204 8.85828 4.19796 8.85828 3.88481V1.76387C8.85828 1.45071 8.78236 1.21821 8.63053 1.06637C8.4787 0.91454 8.25253 0.838623 7.95202 0.838623H5.79312C5.48945 0.838623 5.2617 0.91454 5.10987 1.06637C4.95803 1.21821 4.88211 1.45071 4.88211 1.76387V3.88481C4.88211 4.19796 4.95803 4.43204 5.10987 4.58704C5.2617 4.73887 5.48945 4.81479 5.79312 4.81479ZM1.02931 9.57386H3.19295C3.49346 9.57386 3.71963 9.49794 3.87146 9.34611C4.0233 9.19427 4.09922 8.96178 4.09922 8.64862V6.52293C4.09922 6.21294 4.0233 5.98202 3.87146 5.83019C3.71963 5.67519 3.49346 5.59769 3.19295 5.59769H1.02931C0.728804 5.59769 0.502633 5.67519 0.350799 5.83019C0.198964 5.98202 0.123047 6.21294 0.123047 6.52293V8.64862C0.123047 8.96178 0.198964 9.19427 0.350799 9.34611C0.502633 9.49794 0.728804 9.57386 1.02931 9.57386ZM5.79312 9.57386H7.95202C8.25253 9.57386 8.4787 9.49794 8.63053 9.34611C8.78236 9.19427 8.85828 8.96178 8.85828 8.64862V6.52293C8.85828 6.21294 8.78236 5.98202 8.63053 5.83019C8.4787 5.67519 8.25253 5.59769 7.95202 5.59769H5.79312C5.48945 5.59769 5.2617 5.67519 5.10987 5.83019C4.95803 5.98202 4.88211 6.21294 4.88211 6.52293V8.64862C4.88211 8.96178 4.95803 9.19427 5.10987 9.34611C5.2617 9.49794 5.48945 9.57386 5.79312 9.57386Z" fill="#111111"/>
</svg>
