<svg width="9" height="9" viewBox="0 0 9 9" fill="none" xmlns="http://www.w3.org/2000/svg">
<path d="M0.869472 8.62423H7.23229C7.48535 8.62423 7.68305 8.56729 7.8254 8.45341C7.9709 8.3427 8.04366 8.18928 8.04366 7.99316C8.04366 7.68949 7.95034 7.36843 7.76371 7.02996C7.58025 6.6915 7.31454 6.37517 6.96658 6.081C6.62179 5.78365 6.20266 5.54325 5.7092 5.35978C5.2189 5.17315 4.66534 5.07984 4.04851 5.07984C3.43484 5.07984 2.88128 5.17315 2.38782 5.35978C1.89752 5.54325 1.47839 5.78365 1.13044 6.081C0.782483 6.37517 0.516773 6.6915 0.333306 7.02996C0.149839 7.36843 0.0581055 7.68949 0.0581055 7.99316C0.0581055 8.18928 0.129278 8.3427 0.271623 8.45341C0.417131 8.56729 0.616414 8.62423 0.869472 8.62423ZM4.05325 4.23051C4.39172 4.23051 4.70488 4.13878 4.99273 3.95531C5.28058 3.76868 5.5115 3.5172 5.68548 3.20088C5.86262 2.88456 5.95119 2.5287 5.95119 2.1333C5.95119 1.74422 5.86262 1.39626 5.68548 1.08943C5.5115 0.779437 5.28058 0.535869 4.99273 0.358728C4.70488 0.181588 4.39172 0.0930176 4.05325 0.0930176C3.71479 0.0930176 3.40163 0.183169 3.11378 0.363473C2.82592 0.543777 2.59343 0.788926 2.41629 1.09892C2.24231 1.40892 2.15532 1.75687 2.15532 2.14279C2.15532 2.53502 2.24231 2.88931 2.41629 3.20563C2.59343 3.51879 2.82592 3.76868 3.11378 3.95531C3.40163 4.13878 3.71479 4.23051 4.05325 4.23051Z" fill="#444444"/>
</svg>
