<svg width="15" height="12" viewBox="0 0 15 12" fill="none" xmlns="http://www.w3.org/2000/svg">
<path fill-rule="evenodd" clip-rule="evenodd" d="M7.94484 0.985807C8.15372 0.783546 8.43699 0.669922 8.73235 0.669922C9.02772 0.669922 9.31098 0.783546 9.51987 0.985807L13.9754 5.30138C14.1842 5.5037 14.3015 5.77807 14.3015 6.06415C14.3015 6.35024 14.1842 6.62461 13.9754 6.82693L9.51987 11.1425C9.30979 11.339 9.02842 11.4478 8.73636 11.4453C8.44431 11.4429 8.16493 11.3294 7.95841 11.1294C7.75189 10.9293 7.63474 10.6587 7.6322 10.3758C7.62966 10.093 7.74194 9.82043 7.94484 9.61695L10.499 7.14305H2.04906C1.75364 7.14305 1.47032 7.02938 1.26143 6.82705C1.05254 6.62471 0.935181 6.35029 0.935181 6.06415C0.935181 5.77801 1.05254 5.50359 1.26143 5.30126C1.47032 5.09893 1.75364 4.98526 2.04906 4.98526H10.499L7.94484 2.51136C7.73602 2.30904 7.61871 2.03467 7.61871 1.74858C7.61871 1.4625 7.73602 1.18813 7.94484 0.985807Z" fill="#D3B1FF"/>
</svg>
