<svg width="15" height="12" viewBox="0 0 15 12" fill="none" xmlns="http://www.w3.org/2000/svg">
<path fill-rule="evenodd" clip-rule="evenodd" d="M7.94057 0.985807C8.14945 0.783546 8.43272 0.669922 8.72808 0.669922C9.02344 0.669922 9.30671 0.783546 9.5156 0.985807L13.9711 5.30138C14.1799 5.5037 14.2973 5.77807 14.2973 6.06415C14.2973 6.35024 14.1799 6.62461 13.9711 6.82693L9.5156 11.1425C9.30552 11.339 9.02415 11.4478 8.73209 11.4453C8.44003 11.4429 8.16066 11.3294 7.95414 11.1294C7.74761 10.9293 7.63047 10.6587 7.62793 10.3758C7.62539 10.093 7.73766 9.82043 7.94057 9.61695L10.4947 7.14305H2.04479C1.74937 7.14305 1.46605 7.02938 1.25716 6.82705C1.04826 6.62471 0.930908 6.35029 0.930908 6.06415C0.930908 5.77801 1.04826 5.50359 1.25716 5.30126C1.46605 5.09893 1.74937 4.98526 2.04479 4.98526H10.4947L7.94057 2.51136C7.73175 2.30904 7.61444 2.03467 7.61444 1.74858C7.61444 1.4625 7.73175 1.18813 7.94057 0.985807V0.985807Z" fill="#FECAFF"/>
</svg>
