<svg width="14" height="13" viewBox="0 0 14 13" fill="none" xmlns="http://www.w3.org/2000/svg">
<path d="M8.17036 2.85425L2.95569 8.06891C2.9366 8.08803 2.92261 8.11162 2.915 8.13754L2.1076 10.8827C2.09944 10.9105 2.09892 10.94 2.1061 10.9681C2.11327 10.9962 2.12787 11.0218 2.14837 11.0423C2.16887 11.0628 2.19451 11.0774 2.22259 11.0846C2.25068 11.0918 2.28018 11.0913 2.308 11.0831L5.05315 10.2757C5.07907 10.2681 5.10267 10.2541 5.12178 10.235L10.3364 5.02034L8.17036 2.85425Z" fill="#004D93"/>
<path d="M11.2305 2.98471L10.2062 1.96044C10.0547 1.80926 9.84935 1.72437 9.6353 1.72437C9.42124 1.72437 9.21593 1.80926 9.06438 1.96044L8.39893 2.6259L10.565 4.79199L11.2305 4.12653C11.3817 3.97499 11.4665 3.76967 11.4665 3.55562C11.4665 3.34156 11.3817 3.13625 11.2305 2.98471Z" fill="#004D93"/>
</svg>
